<?xml version="1.0" standalone="no"?>
<!DOCTYPE svg PUBLIC "-//W3C//DTD SVG 20010904//EN"
 "http://www.w3.org/TR/2001/REC-SVG-20010904/DTD/svg10.dtd">
<svg version="1.0" xmlns="http://www.w3.org/2000/svg"
 width="807.000000pt" height="526.000000pt" viewBox="0 0 807.000000 526.000000"
 preserveAspectRatio="xMidYMid meet">

<g transform="translate(0.000000,526.000000) scale(0.100000,-0.100000)"
fill="#000000" stroke="none">
<path d="M0 2630 l0 -2630 4035 0 4035 0 0 2630 0 2630 -4035 0 -4035 0 0
-2630z m2048 654 c12 -8 29 -28 37 -44 l14 -28 41 20 c33 17 46 19 66 10 30
-15 60 -62 68 -111 5 -35 8 -37 35 -33 22 3 36 -2 54 -20 19 -19 31 -23 70
-20 40 3 50 0 70 -22 27 -29 47 -94 47 -150 l0 -36 45 7 c39 5 49 2 70 -17 13
-12 26 -32 29 -45 5 -19 13 -23 37 -23 83 3 100 -103 42 -259 -4 -10 14 1 40
25 51 46 72 52 82 22 9 -29 -2 -75 -40 -158 -32 -69 -33 -76 -28 -160 6 -96
-8 -172 -32 -172 -12 0 -15 20 -17 98 -4 160 -3 166 35 247 20 42 37 80 37 83
0 13 -56 -48 -118 -128 -97 -125 -152 -190 -163 -190 -25 0 -2 55 61 150 107
160 160 305 131 359 -7 11 -20 21 -30 21 -15 0 -20 -10 -26 -52 -7 -59 -39
-166 -62 -213 -36 -69 -120 -179 -184 -240 -69 -65 -101 -79 -113 -49 -5 12
-15 4 -45 -33 -42 -54 -96 -103 -113 -103 -22 0 -48 34 -48 63 0 28 -1 29 -18
14 -10 -9 -34 -23 -54 -32 -32 -13 -39 -13 -52 0 -12 13 -18 11 -47 -16 -46
-43 -78 -54 -98 -34 -23 23 -19 140 8 244 12 46 21 85 19 86 -2 2 -13 -11 -26
-28 -12 -18 -42 -60 -67 -94 -46 -65 -113 -113 -157 -113 -62 0 -93 86 -84
235 26 417 274 953 441 955 11 0 31 -7 43 -16z m1520 -88 c15 -8 36 -23 46
-35 19 -21 19 -21 -6 -21 -14 0 -37 -9 -51 -20 -14 -11 -28 -20 -33 -20 -15 0
-75 -71 -68 -82 4 -7 3 -8 -4 -4 -10 6 -42 -40 -48 -69 -1 -5 -16 -41 -34 -79
-17 -37 -34 -90 -37 -118 l-6 -49 54 22 c78 31 109 39 152 39 53 0 162 -48
210 -92 l40 -37 -5 -69 c-7 -98 -49 -173 -168 -296 -94 -97 -207 -177 -269
-191 -36 -7 -166 36 -166 55 0 10 10 15 30 15 70 1 262 163 361 305 72 103 91
220 38 228 -11 2 -66 -15 -122 -38 -56 -22 -110 -40 -120 -40 -28 0 -145 41
-164 58 -33 28 -33 90 2 193 54 162 155 306 249 353 47 25 57 24 119 -8z
m1121 10 c95 -28 111 -40 146 -109 35 -71 34 -88 -7 -81 -93 17 -108 24 -128
64 -11 22 -24 40 -29 40 -10 0 -36 -58 -53 -120 -18 -63 -17 -467 1 -585 14
-91 46 -213 61 -228 12 -14 67 62 97 134 15 37 31 65 35 63 5 -3 8 2 8 11 0
20 40 35 91 35 27 0 39 -4 39 -14 0 -22 -41 -148 -60 -186 -23 -45 -120 -138
-151 -144 -59 -12 -161 -14 -184 -4 -62 28 -108 185 -120 413 -6 127 -1 146
15 49 9 -55 9 -54 4 26 -11 194 -17 255 -25 235 -14 -36 -9 141 6 213 20 99
42 147 81 182 42 37 65 37 173 6z m1567 8 c73 -30 119 -74 78 -74 -20 0 -94
-41 -94 -52 0 -4 -6 -8 -13 -8 -14 0 -42 -38 -42 -60 -1 -8 -6 -14 -13 -12
-10 2 -25 -22 -37 -58 -1 -3 -15 -35 -32 -71 -28 -61 -58 -167 -50 -176 2 -2
38 10 80 27 106 42 153 41 255 -10 104 -52 128 -86 118 -168 -12 -100 -70
-194 -193 -314 -75 -73 -177 -143 -232 -158 -29 -9 -50 -6 -111 13 -48 15 -75
28 -75 37 0 10 10 15 30 15 100 0 360 247 416 395 29 78 24 140 -12 140 -10 0
-61 -17 -111 -37 -108 -44 -155 -47 -239 -14 -62 24 -79 47 -79 111 0 76 74
251 145 344 49 65 128 131 171 146 1 0 19 -7 40 -16z m-1141 -67 c45 -11 50
-15 56 -47 10 -47 11 -982 1 -997 -4 -7 -37 -15 -73 -19 -63 -6 -66 -5 -74 17
-12 37 -18 459 -7 504 9 37 10 34 11 -38 1 -49 5 -76 11 -72 6 3 10 25 10 47
0 40 0 41 19 24 11 -10 22 -28 24 -40 2 -11 5 82 6 207 1 187 -2 231 -13 243
-10 9 -17 10 -21 4 -4 -6 -10 -8 -14 -5 -5 2 -11 -13 -15 -35 -3 -21 -11 -42
-16 -45 -11 -7 -15 247 -3 258 9 9 38 7 98 -6z m-875 -35 c87 -36 106 -72 121
-233 18 -183 -5 -392 -55 -515 l-24 -59 3 45 c2 25 4 51 4 58 1 7 6 10 11 7
10 -6 14 27 12 90 -1 29 -1 29 7 5 6 -20 9 -12 15 40 6 61 3 106 -9 118 -3 3
-5 -3 -5 -13 0 -10 -3 -15 -7 -12 -12 12 -33 -15 -33 -43 0 -39 -21 -95 -30
-80 -7 12 -27 -84 -21 -104 4 -17 -32 -123 -65 -189 -39 -78 -28 -81 16 -4 16
29 30 49 30 45 0 -14 -25 -64 -53 -105 -31 -47 -27 -55 10 -21 24 22 31 14 10
-12 -19 -24 -57 -38 -140 -50 -94 -14 -114 -5 -151 68 -41 80 -51 152 -50 342
1 182 20 342 52 442 17 52 18 53 53 50 34 -2 37 0 59 48 13 28 42 67 63 87 45
41 66 40 177 -5z m1532 3 c34 -14 65 -29 68 -35 9 -14 -10 -244 -21 -251 -10
-6 -31 -165 -30 -219 1 -18 -2 -21 -8 -11 -10 15 -26 -253 -18 -304 2 -17 5
-3 6 31 1 71 11 125 20 120 4 -3 5 -35 2 -73 -10 -147 -7 -228 9 -228 8 0 16
-7 18 -15 4 -23 -146 -46 -166 -26 -15 15 -35 284 -24 316 3 10 2 12 -5 5 -12
-11 -53 -119 -53 -137 0 -7 7 -3 15 8 10 12 7 -5 -9 -47 -27 -75 -62 -145 -75
-153 -5 -4 -47 -11 -92 -17 l-83 -11 -22 26 c-38 44 -46 92 -51 321 -5 221 16
595 37 650 9 24 9 24 57 8 26 -8 57 -25 69 -37 21 -21 21 -26 16 -368 -3 -192
-2 -348 1 -348 11 0 112 322 172 550 63 235 75 270 90 270 9 0 43 -11 77 -25z
m-685 -362 c-3 -10 -5 -2 -5 17 0 19 2 27 5 18 2 -10 2 -26 0 -35z m-652 -73
c3 -5 1 -10 -4 -10 -6 0 -11 5 -11 10 0 6 2 10 4 10 3 0 8 -4 11 -10z m2 -52
c-3 -8 -6 -5 -6 6 -1 11 2 17 5 13 3 -3 4 -12 1 -19z"/>
<path d="M1952 3223 c-104 -51 -263 -383 -322 -671 -26 -129 -35 -244 -25
-308 l8 -49 14 65 c18 89 35 137 113 336 104 262 179 401 282 526 41 49 41 55
5 96 -24 26 -32 27 -75 5z"/>
<path d="M2133 3163 c-16 -16 -18 -31 -15 -126 l3 -107 38 47 c21 27 45 54 54
62 23 18 21 69 -3 109 -22 36 -48 41 -77 15z"/>
<path d="M2012 3035 c-118 -157 -342 -686 -342 -807 0 -40 18 -35 78 23 71 68
131 145 153 197 10 23 22 42 27 42 5 0 24 44 42 98 17 53 45 129 62 167 35 82
59 258 42 316 l-10 34 -52 -70z"/>
<path d="M2290 3003 c0 -25 0 -26 20 -8 11 10 20 22 20 27 0 4 -9 8 -20 8 -15
0 -20 -7 -20 -27z"/>
<path d="M2203 2958 c-51 -53 -101 -145 -129 -237 -14 -47 -41 -120 -59 -161
-38 -83 -115 -381 -115 -441 0 -21 4 -40 9 -44 6 -3 26 11 45 30 33 33 36 40
36 94 0 160 92 456 200 645 36 62 50 97 48 118 l-3 29 -32 -33z"/>
<path d="M2415 2862 l0 -129 43 36 43 36 -4 67 c-5 76 -26 118 -60 118 -22 0
-22 -2 -22 -128z"/>
<path d="M2322 2941 c-32 -25 -34 -33 -43 -111 -25 -239 -114 -507 -220 -667
l-21 -33 21 0 c12 0 41 18 64 40 34 30 51 58 77 127 18 48 61 149 96 223 53
114 65 148 73 220 9 73 2 212 -11 225 -2 2 -18 -9 -36 -24z"/>
<path d="M2191 2753 c-73 -147 -130 -330 -149 -477 -8 -62 -7 -67 6 -50 45 58
127 272 157 409 16 75 34 195 28 195 -1 0 -20 -35 -42 -77z"/>
<path d="M2569 2778 c-10 -8 -21 -43 -28 -88 -7 -41 -15 -86 -18 -100 -4 -19
2 -15 27 20 18 25 49 62 69 83 34 36 35 39 21 65 -18 31 -47 39 -71 20z"/>
<path d="M2435 2673 c-32 -42 -54 -85 -77 -153 -30 -90 -79 -202 -132 -300
-13 -25 -27 -62 -30 -82 -13 -74 36 -37 125 93 69 102 135 263 164 402 26 118
17 125 -50 40z"/>
<path d="M2622 2632 c-77 -97 -233 -384 -218 -400 11 -10 104 89 151 159 24
36 53 86 64 112 19 45 45 157 37 164 -2 2 -17 -13 -34 -35z"/>
<path d="M4473 2570 c0 -30 2 -43 4 -27 2 15 2 39 0 55 -2 15 -4 2 -4 -28z"/>
<path d="M4482 2455 c0 -16 2 -22 5 -12 2 9 2 23 0 30 -3 6 -5 -1 -5 -18z"/>
<path d="M5060 2494 c0 -8 5 -12 10 -9 6 4 8 11 5 16 -9 14 -15 11 -15 -7z"/>
<path d="M4167 2980 c-9 -14 -36 -80 -59 -145 -23 -66 -49 -125 -58 -132 -9
-6 -22 -31 -29 -55 -7 -24 -17 -58 -23 -76 -14 -49 -1 -133 23 -139 10 -3 19
-9 19 -13 0 -12 -49 -30 -65 -24 -12 5 -15 -5 -14 -57 0 -35 7 -82 14 -104
l14 -40 -4 50 -5 50 20 -55 c11 -30 22 -61 25 -68 4 -10 9 -9 23 5 52 51 104
196 127 353 18 125 27 340 17 415 l-7 60 -18 -25z"/>
<path d="M4172 2328 c-40 -84 -55 -123 -53 -137 2 -8 -2 -10 -11 -5 -7 4 -10
4 -6 -1 4 -4 2 -15 -5 -24 -11 -14 -10 -14 6 -2 22 18 53 76 78 150 23 67 18
77 -9 19z"/>
<path d="M3926 2290 c3 -25 10 -49 15 -55 11 -11 1 48 -13 80 -5 13 -6 4 -2
-25z"/>
<path d="M5607 2513 c-10 -18 -17 -37 -17 -43 0 -6 -20 -63 -45 -127 -46 -119
-59 -177 -24 -110 11 21 17 42 14 47 -3 6 -2 10 4 10 13 0 45 73 72 162 23 76
21 110 -4 61z"/>
<path d="M5720 2352 c0 -42 -4 -91 -8 -107 -4 -17 -5 -46 -2 -65 l6 -35 6 40
c8 53 11 245 4 245 -3 0 -6 -35 -6 -78z"/>
</g>
</svg>
